<svg width="17" height="17" viewBox="0 0 17 17" fill="none" xmlns="http://www.w3.org/2000/svg">
<path d="M3.06066 0.93934C2.47487 0.353553 1.52513 0.353553 0.93934 0.93934C0.353553 1.52513 0.353553 2.47487 0.93934 3.06066L3.06066 0.93934ZM15 16.5C15.8284 16.5 16.5 15.8284 16.5 15L16.5 1.5C16.5 0.671573 15.8284 5.74219e-07 15 5.74219e-07C14.1716 9.11394e-07 13.5 0.671574 13.5 1.5V13.5H1.5C0.671574 13.5 9.11394e-07 14.1716 5.74219e-07 15C5.74219e-07 15.8284 0.671573 16.5 1.5 16.5L15 16.5ZM0.93934 3.06066L13.9393 16.0607L16.0607 13.9393L3.06066 0.93934L0.93934 3.06066Z" fill="white"/>
</svg>
